<?xml version="1.0" encoding="UTF-8"?><svg  width="108" height="40" id="Layer_2" xmlns="http://www.w3.org/2000/svg" viewBox="0 0 1701.45 615"><defs><style>.cls-1,.cls-2{fill:#fcfaf7;}.cls-3{fill:#23ab85;}.cls-3,.cls-4,.cls-5,.cls-2,.cls-6{fill-rule:evenodd;}.cls-4{fill:#e3522f;}.cls-5{fill:#efb938;}.cls-6{fill:#017bbb;}</style></defs><g id="Layer_1-2"><g><path class="cls-2" d="m1503.83,527.68c-5.83,0-10.32,1.73-13.45,5.21-3.14,3.5-4.94,8.73-5.4,15.7h35c0-6.96-1.34-12.2-4.03-15.7-2.69-3.48-6.74-5.21-12.12-5.21Zm-485.92,0c-5.83,0-10.32,1.73-13.45,5.21-3.14,3.5-4.94,8.73-5.4,15.7h35c0-6.96-1.34-12.2-4.03-15.7-2.69-3.48-6.74-5.21-12.12-5.21Zm611.64,0c-6.55,0-11.35,2.1-14.42,6.28-3.05,4.2-4.57,10.76-4.57,19.66s1.52,15.33,4.57,19.53c3.07,4.18,7.87,6.28,14.42,6.28s11.51-2.1,14.6-6.28c3.1-4.2,4.65-10.72,4.65-19.53s-1.54-15.37-4.65-19.61c-3.09-4.22-7.97-6.34-14.6-6.34Zm-911.4,0c-6.55,0-11.35,2.1-14.42,6.28-3.05,4.2-4.57,10.76-4.57,19.66s1.52,15.33,4.57,19.53c3.07,4.18,7.87,6.28,14.42,6.28s11.51-2.1,14.59-6.28c3.1-4.2,4.65-10.72,4.65-19.53s-1.54-15.37-4.65-19.61c-3.08-4.22-7.97-6.34-14.59-6.34Zm425.49,0c-6.55,0-11.35,2.1-14.42,6.28-3.05,4.2-4.57,10.76-4.57,19.66s1.52,15.33,4.57,19.53c3.07,4.18,7.87,6.28,14.42,6.28s11.51-2.1,14.59-6.28c3.1-4.2,4.65-10.72,4.65-19.53s-1.54-15.37-4.65-19.61c-3.09-4.22-7.97-6.34-14.59-6.34Zm165.02,0c-6.55,0-11.35,2.1-14.42,6.28-3.05,4.2-4.57,10.76-4.57,19.66s1.52,15.33,4.57,19.53c3.07,4.18,7.87,6.28,14.42,6.28s11.51-2.1,14.6-6.28c3.1-4.2,4.65-10.72,4.65-19.53s-1.54-15.37-4.65-19.61c-3.09-4.22-7.97-6.34-14.6-6.34Zm-337.99-8.75c.45,0,.87.41,1.27,1.19.42.8.75,1.75,1.03,2.86.26,1.11.4,2.04.4,2.84,0,.54-.1.97-.28,1.32l-39.3,51.5h37.02c1.78,0,2.69,1.32,2.69,3.97v1.59c0,2.65-.91,3.97-2.69,3.97h-49.82c-.36,0-.75-.37-1.21-1.13-.45-.74-.85-1.65-1.21-2.7-.38-1.07-.53-2.04-.53-2.92,0-.62.12-1.11.4-1.46l39.43-51.5h-34.45c-1.8,0-2.69-1.32-2.69-3.97v-1.59c0-2.65.89-3.97,2.69-3.97h47.25Zm433.69-30.31c3.6,0,5.4.97,5.4,2.92v35.75c2.33-2.3,5.26-4.4,8.8-6.3,3.54-1.89,7.48-2.84,11.79-2.84,2.16,0,4.47.29,6.92.86,2.47.58,4.81,1.61,7,3.11,2.21,1.5,3.99,3.66,5.4,6.5,1.38,2.82,2.08,6.48,2.08,10.97v45.94c0,1.94-1.78,2.92-5.38,2.92h-.53c-3.6,0-5.4-.97-5.4-2.92v-44.87c0-3.89-1.13-7-3.42-9.34-2.29-2.33-5.72-3.5-10.3-3.5-2.51,0-4.81.47-6.86,1.38-2.06.93-3.86,2-5.38,3.25-1.52,1.24-3.1,2.78-4.71,4.63v48.45c0,1.94-1.8,2.92-5.4,2.92h-.53c-3.6,0-5.38-.97-5.38-2.92v-93.98c0-1.94,1.78-2.92,5.38-2.92h.53Zm-310.8,29.52c2.61,0,4.57.41,5.85,1.26,1.31.84,1.96,2.12,1.96,3.89,0,.8-.12,1.77-.34,2.92-.22,1.15-.53,2.14-.95,2.98-.4.84-.87,1.26-1.4,1.26-.91,0-1.78-.25-2.63-.72-.85-.51-2.43-.74-4.79-.74s-4.43.66-6.33,1.98c-1.88,1.32-3.9,3.36-6.05,6.09v48.45c0,1.94-1.78,2.92-5.38,2.92h-.53c-3.6,0-5.4-.97-5.4-2.92v-46.47c0-3.62-.12-6.61-.4-9.01-.26-2.37-.53-4.2-.81-5.48-.26-1.28-.4-2-.4-2.18,0-.62.3-1.13.87-1.54.57-.39,1.29-.7,2.08-.91.81-.23,1.62-.39,2.43-.47.81-.08,1.44-.14,1.88-.14,1.09,0,1.92.49,2.49,1.46.59.97,1.03,2.14,1.36,3.5.3,1.38.59,2.63.87,3.77,2.33-3.17,4.81-5.62,7.46-7.33,2.65-1.73,5.36-2.59,8.15-2.59Zm-425.49,0c2.61,0,4.57.41,5.85,1.26,1.31.84,1.96,2.12,1.96,3.89,0,.8-.12,1.77-.34,2.92-.22,1.15-.53,2.14-.95,2.98-.4.84-.87,1.26-1.4,1.26-.91,0-1.78-.25-2.63-.72-.85-.51-2.43-.74-4.79-.74s-4.43.66-6.33,1.98c-1.88,1.32-3.9,3.36-6.05,6.09v48.45c0,1.94-1.78,2.92-5.38,2.92h-.53c-3.6,0-5.4-.97-5.4-2.92v-46.47c0-3.62-.12-6.61-.4-9.01-.26-2.37-.53-4.2-.81-5.48-.26-1.28-.4-2-.4-2.18,0-.62.3-1.13.87-1.54.57-.39,1.29-.7,2.08-.91.81-.23,1.62-.39,2.43-.47.81-.08,1.44-.14,1.88-.14,1.09,0,1.92.49,2.49,1.46.59.97,1.03,2.14,1.36,3.5.3,1.38.59,2.63.87,3.77,2.33-3.17,4.81-5.62,7.46-7.33,2.65-1.73,5.36-2.59,8.15-2.59Zm-53.3-30.05c1.25,0,2.65.08,4.17.27,1.52.16,2.85.53,3.96,1.05,1.13.53,1.7,1.42,1.7,2.65,0,.35-.12,1.03-.36,2.06-.22,1.01-.53,1.96-.93,2.84-.42.88-.93,1.32-1.54,1.32s-1.27-.12-1.88-.33c-.63-.21-1.94-.33-3.92-.33-1.27,0-2.43.21-3.56.66-1.13.45-2.04,1.34-2.69,2.7-.69,1.38-1.01,3.52-1.01,6.42v11.53h11.71c1.78,0,2.69,1.32,2.69,3.97v1.59c0,2.65-.91,3.97-2.69,3.97h-11.71v57.05c0,1.94-1.8,2.92-5.4,2.92h-.53c-3.6,0-5.38-.97-5.38-2.92v-57.05h-5.4c-1.78,0-2.69-1.32-2.69-3.97v-1.59c0-2.65.91-3.97,2.69-3.97h5.4v-12.58c0-3.97.57-7.14,1.74-9.53,1.17-2.39,2.65-4.22,4.45-5.48,1.78-1.28,3.68-2.16,5.66-2.59,1.96-.45,3.8-.66,5.52-.66Zm964.7,30.05c2.61,0,4.57.41,5.85,1.26,1.3.84,1.96,2.12,1.96,3.89,0,.8-.12,1.77-.34,2.92-.22,1.15-.53,2.14-.95,2.98-.4.84-.87,1.26-1.4,1.26-.91,0-1.78-.25-2.63-.72-.85-.51-2.43-.74-4.79-.74s-4.43.66-6.33,1.98c-1.88,1.32-3.9,3.36-6.05,6.09v48.45c0,1.94-1.78,2.92-5.38,2.92h-.53c-3.6,0-5.4-.97-5.4-2.92v-46.47c0-3.62-.12-6.61-.4-9.01-.26-2.37-.53-4.2-.81-5.48-.26-1.28-.4-2-.4-2.18,0-.62.3-1.13.87-1.54.57-.39,1.29-.7,2.08-.91.81-.23,1.62-.39,2.43-.47.81-.08,1.44-.14,1.88-.14,1.09,0,1.92.49,2.49,1.46.59.97,1.03,2.14,1.37,3.5.3,1.38.59,2.63.87,3.77,2.33-3.17,4.8-5.62,7.46-7.33,2.65-1.73,5.36-2.59,8.15-2.59Zm-736.68,0c2.16,0,4.43.29,6.86.86,2.43.58,4.73,1.61,6.94,3.11,2.2,1.5,3.96,3.66,5.3,6.5,1.36,2.82,2.02,6.48,2.02,10.97v45.94c0,1.94-1.78,2.92-5.38,2.92h-.53c-3.6,0-5.38-.97-5.38-2.92v-44.87c0-3.89-1.09-7-3.24-9.34-2.16-2.33-5.38-3.5-9.69-3.5-2.41,0-4.63.49-6.66,1.46-2.02.97-3.8,2.08-5.38,3.36-1.56,1.28-2.79,2.45-3.64,3.52l-.57.71-.27.31.07,1.05c.02.52.04,1.02.04,1.5v45.8c0,1.94-1.8,2.92-5.38,2.92h-.55c-3.58,0-5.38-.97-5.38-2.92v-44.87c0-3.89-1.07-7-3.22-9.34-2.16-2.33-5.38-3.5-9.69-3.5-2.43,0-4.65.47-6.66,1.38-2.02.93-3.78,1.98-5.24,3.19-1.5,1.19-2.99,2.7-4.51,4.55v48.59c0,1.94-1.8,2.92-5.4,2.92h-.53c-3.6,0-5.38-.97-5.38-2.92v-46.47c0-3.62-.14-6.61-.4-9.01-.28-2.37-.55-4.2-.81-5.48-.28-1.28-.42-2-.42-2.18,0-.62.28-1.13.87-1.54.59-.39,1.29-.7,2.1-.91.81-.23,1.6-.39,2.41-.47.81-.08,1.44-.14,1.9-.14,1.07,0,1.9.49,2.49,1.46.57.97,1.03,2.14,1.34,3.5.3,1.38.59,2.63.87,3.77,2.23-2.55,5.12-4.84,8.68-6.89,3.54-2.02,7.48-3.03,11.77-3.03,2.25,0,4.61.29,7.08.86,2.47.58,4.81,1.65,7,3.25,2.2,1.59,3.92,3.87,5.18,6.89,2.59-3.01,5.75-5.58,9.49-7.74,3.72-2.18,7.69-3.25,11.91-3.25Zm466.27,0c9.87,0,17.42,3.05,22.68,9.2,5.26,6.13,7.87,14.98,7.87,26.53s-2.57,20.19-7.73,26.16c-5.16,5.95-12.78,8.93-22.82,8.93s-17.88-3-23.22-9.01c-5.34-5.99-8.01-14.68-8.01-26.08s2.69-20.29,8.09-26.47c5.38-6.19,13.09-9.26,23.14-9.26Zm-66.36-16.03c2.69,0,4.05.97,4.05,2.92v13.89h11.29c1.8,0,2.69,1.32,2.69,3.97v1.59c0,2.65-.89,3.99-2.69,3.99h-11.29v41.16c0,3.97.71,6.61,2.16,7.88,1.42,1.28,3.12,1.93,5.1,1.93s3.28-.12,3.9-.33c.63-.21,1.27-.33,1.9-.33s1.15.45,1.54,1.32c.4.88.71,1.83.95,2.84.22,1.03.32,1.71.32,2.06,0,1.15-.55,2-1.66,2.57-1.13.58-2.45.95-3.98,1.13-1.54.18-2.93.27-4.17.27-1.7,0-3.54-.25-5.52-.74-1.98-.47-3.86-1.36-5.66-2.65-1.8-1.26-3.28-3.13-4.45-5.54-1.17-2.43-1.74-5.54-1.74-9.34v-42.23h-6.72c-1.8,0-2.69-1.34-2.69-3.99v-1.59c0-2.65.89-3.97,2.69-3.97h6.72l1.6-13.89c.2-1.94,1.62-2.92,4.31-2.92h1.34Zm261.55,16.02c6.17,0,11.31,1.32,15.41,3.97,4.07,2.65,7.16,6.54,9.22,11.65,2.06,5.12,3.1,11.42,3.1,18.92,0,.53-.26,1.23-.75,2.04-.49.86-1.11,1.63-1.82,2.33-.71.7-1.34,1.05-1.88,1.05h-42.54c.53,7.33,2.47,12.72,5.79,16.14,3.32,3.46,8.29,5.17,14.93,5.17,3.96,0,7.3-.47,10.03-1.4,2.75-.91,4.92-1.85,6.55-2.76,1.6-.93,2.63-1.4,3.09-1.4.63,0,1.31.45,2.02,1.32.71.88,1.34,1.87,1.88,2.92.55,1.05.81,1.85.81,2.39,0,.78-.61,1.67-1.88,2.65-1.27.97-2.99,1.89-5.18,2.76-2.2.89-4.77,1.61-7.67,2.2-2.91.56-6.07.86-9.49.86-11.13,0-19.4-2.86-24.82-8.6-5.46-5.74-8.17-14.53-8.17-26.35,0-7.86,1.21-14.43,3.58-19.72,2.37-5.29,5.89-9.32,10.56-12.04,4.67-2.74,10.4-4.1,17.25-4.1Zm-360.21,0c9.87,0,17.42,3.05,22.68,9.2,5.26,6.13,7.87,14.98,7.87,26.53s-2.57,20.19-7.73,26.16c-5.16,5.95-12.78,8.93-22.82,8.93s-17.88-3-23.22-9.01c-5.34-5.99-8.01-14.68-8.01-26.08s2.69-20.29,8.09-26.47c5.38-6.19,13.09-9.26,23.14-9.26Zm-125.71,0c6.17,0,11.31,1.32,15.41,3.97,4.07,2.65,7.16,6.54,9.22,11.65,2.06,5.12,3.09,11.42,3.09,18.92,0,.53-.24,1.23-.73,2.04-.49.86-1.11,1.63-1.82,2.33-.71.7-1.34,1.05-1.88,1.05h-42.54c.53,7.33,2.47,12.72,5.79,16.14,3.32,3.46,8.29,5.17,14.93,5.17,3.96,0,7.3-.47,10.03-1.4,2.75-.91,4.92-1.85,6.55-2.76,1.6-.93,2.63-1.4,3.09-1.4.63,0,1.31.45,2.02,1.32.71.88,1.34,1.87,1.88,2.92.55,1.05.81,1.85.81,2.39,0,.78-.61,1.67-1.88,2.65-1.27.97-2.99,1.89-5.18,2.76-2.2.89-4.77,1.61-7.67,2.2-2.91.56-6.07.86-9.49.86-11.13,0-19.4-2.86-24.82-8.6-5.46-5.74-8.17-14.53-8.17-26.35,0-7.86,1.21-14.43,3.58-19.72,2.37-5.29,5.89-9.32,10.56-12.04,4.67-2.74,10.4-4.1,17.25-4.1Zm611.62,0c9.87,0,17.42,3.05,22.68,9.2,5.26,6.13,7.87,14.98,7.87,26.53s-2.57,20.19-7.73,26.16c-5.16,5.95-12.78,8.93-22.82,8.93s-17.88-3-23.22-9.01c-5.34-5.99-8.01-14.68-8.01-26.08s2.69-20.29,8.09-26.47c5.38-6.19,13.09-9.26,23.14-9.26Zm-911.4,0c9.87,0,17.42,3.05,22.68,9.2,5.26,6.13,7.87,14.98,7.87,26.53s-2.57,20.19-7.73,26.16c-5.16,5.95-12.78,8.93-22.82,8.93s-17.88-3-23.22-9.01c-5.34-5.99-8.01-14.68-8.01-26.08s2.69-20.29,8.09-26.47c5.38-6.19,13.09-9.26,23.14-9.26Z"/><path class="cls-2" d="m1420.06,237.67c-17.47,0-30.75,6.08-39.88,18.23-9.13,12.17-13.68,29.81-13.68,52.95s4.55,41.11,13.68,53.36c9.13,12.27,22.42,18.39,39.88,18.39s30.71-6.12,39.72-18.39c9.03-12.25,13.55-30.03,13.55-53.36s-4.51-40.78-13.55-52.95c-9.01-12.15-22.26-18.23-39.72-18.23Zm-207.79,0c-17.47,0-30.75,6.08-39.88,18.23-9.13,12.17-13.68,29.81-13.68,52.95s4.55,41.11,13.68,53.36c9.13,12.27,22.42,18.39,39.88,18.39s30.71-6.12,39.72-18.39c9.03-12.25,13.55-30.03,13.55-53.36s-4.51-40.78-13.55-52.95c-9.01-12.15-22.26-18.23-39.72-18.23Zm-788.23-32.43c.86,0,1.6.52,1.92,1.26l.16.8v36.99c0,.84-.52,1.57-1.27,1.88l-.81.16h-54.95v162.55c0,.77-.52,1.42-1.27,1.7l-.81.14h-37.31c-.86,0-1.6-.46-1.92-1.13l-.16-.72v-162.55h-54.95c-.86,0-1.6-.52-1.92-1.25l-.16-.79v-36.99c0-.85.52-1.59,1.27-1.9l.81-.16h151.37Zm-176.26,0c.86,0,1.6.51,1.92,1.24l.16.8v201.39c0,.85-.52,1.59-1.27,1.9l-.81.16h-37.33c-.86,0-1.6-.52-1.92-1.26l-.16-.8v-201.39c0-.85.52-1.57,1.27-1.88l.81-.16h37.33Zm1319.72,1.23c10.4,0,15.6,2.81,15.6,8.46v163.61h69.75c5.11,0,7.64,4.18,7.64,12.54v7.59c0,8.36-2.54,12.54-7.64,12.54h-97.41c-7.27,0-10.89-3.59-10.89-10.79v-185.49c0-5.65,5.19-8.46,15.59-8.46h7.37Zm-623.36,0c10.4,0,15.6,2.83,15.6,8.46v75.53h88.88v-75.53c0-5.63,5.21-8.46,15.6-8.46h7.66c10.4,0,15.58,2.83,15.58,8.46v188.41c0,5.63-5.19,8.46-15.58,8.46h-7.66c-10.4,0-15.6-2.83-15.6-8.46v-79.93h-88.88v79.93c0,5.63-5.21,8.46-15.6,8.46h-7.64c-10.42,0-15.6-2.83-15.6-8.46v-188.41c0-5.63,5.19-8.46,15.6-8.46h7.64Zm475.92-1.46c30.02,0,53.03,8.85,69.01,26.53,16,17.7,23.98,43.57,23.98,77.59s-7.98,59.4-23.98,77.28c-15.98,17.9-38.99,26.83-69.01,26.83s-53.07-8.93-69.15-26.83c-16.1-17.88-24.16-43.64-24.16-77.28s8.06-59.89,24.16-77.59c16.08-17.68,39.13-26.53,69.15-26.53Zm-207.79,0c30.02,0,53.03,8.85,69.01,26.53,16,17.7,23.98,43.57,23.98,77.59s-7.98,59.4-23.98,77.28c-15.98,17.9-38.99,26.83-69.01,26.83s-53.07-8.93-69.15-26.83c-16.1-17.88-24.16-43.64-24.16-77.28s8.06-59.89,24.16-77.59c16.08-17.68,39.13-26.53,69.15-26.53Zm-379.07-.02c6.28,0,12.75.45,19.43,1.31,6.67.88,12.85,2.16,18.56,3.81,5.68,1.65,10.4,3.53,14.12,5.67,4.91,2.92,7.37,5.85,7.37,8.75,0,2.34-.89,5.4-2.65,9.18-1.78,3.81-3.88,7.16-6.34,10.07-2.46,2.92-4.75,4.38-6.91,4.38-.79,0-2.36-.57-4.72-1.69l-1.92-.94c-3.43-1.75-8.18-3.49-14.28-5.24-6.06-1.75-13.82-2.63-23.25-2.63-19.41,0-33.78,5.83-43.11,17.5-9.33,11.66-13.98,29.65-13.98,53.97s4.65,41.8,13.98,53.65c9.33,11.87,23.51,17.8,42.54,17.8,9.6,0,17.76-1.02,24.42-3.08,5.34-1.62,9.89-3.28,13.66-4.98l6.39-3.06c2.14-.95,3.6-1.43,4.39-1.43,2.55,0,5.01,1.51,7.35,4.53,2.36,3.02,4.22,6.28,5.6,9.77,1.37,3.49,2.06,6.02,2.06,7.58,0,2.34-.87,4.53-2.65,6.57-1.76,2.04-4.22,3.92-7.35,5.67-4.32,2.34-9.53,4.34-15.6,5.99-6.08,1.65-12.46,2.92-19.13,3.79-6.67.88-13.05,1.31-19.13,1.31-32.77,0-57.01-8.46-72.7-25.37-15.7-16.92-23.55-43.27-23.55-79.05,0-69.22,32.46-103.83,97.41-103.83Zm-171.3,0c5.88,0,11.68.45,17.37,1.31,5.68.88,10.89,2.16,15.6,3.81,4.69,1.65,8.63,3.53,11.76,5.67,4.12,2.73,6.18,5.65,6.18,8.75,0,2.14-.73,4.97-2.2,8.46-1.49,3.49-3.29,6.61-5.45,9.34-2.16,2.73-4.22,4.08-6.18,4.08-.66,0-1.42-.17-2.29-.52l-1.4-.65c-.98-.51-2.2-1.07-3.66-1.68l-2.38-.93c-2.73-1.18-6.12-2.3-10.14-3.36-4.04-1.06-8.99-1.61-14.87-1.61-7.47,0-13.49,1.02-18.1,3.06-4.61,2.04-7.9,4.73-9.86,8.03-1.96,3.3-2.93,7.01-2.93,11.09,0,5.83,1.56,10.6,4.69,14.29,3.15,3.69,7.31,6.75,12.52,9.18,5.19,2.43,10.93,4.81,17.21,7.14,6.08,2.53,12.32,5.3,18.69,8.32,6.38,3,12.26,6.75,17.66,11.23,5.39,4.47,9.7,10.11,12.95,16.92,3.23,6.81,4.85,15.17,4.85,25.08,0,10.7-1.76,19.94-5.29,27.71-3.54,7.79-8.46,14.15-14.73,19.09-6.28,4.96-13.35,8.62-21.17,10.95-7.86,2.34-16.1,3.49-24.73,3.49-14.12,0-26.24-1.45-36.34-4.38-10.12-2.9-17.72-6.22-22.83-9.91-4.89-3.3-7.35-6.61-7.35-9.91,0-2.53.93-5.55,2.79-9.05,1.86-3.49,4.08-6.57,6.63-9.18,2.53-2.63,4.61-3.94,6.18-3.94.77,0,1.76.29,2.93.88l2.75,1.42c.52.28,1.08.58,1.66.91l5.3,2.47,6.47,2.75c1.18.48,2.4.97,3.68,1.47,6.38,2.53,14,3.81,22.81,3.81,5.51,0,10.65-.82,15.47-2.49,4.79-1.65,8.67-4.38,11.62-8.16,2.95-3.79,4.4-8.6,4.4-14.44,0-6.59-2.2-11.85-6.61-15.74-4.4-3.89-10.06-7.3-16.91-10.2l-14.13-6.1-7.35-3.25c-5.51-2.34-10.85-5-16.04-8.03-5.21-3-9.86-6.69-13.98-11.09-4.12-4.36-7.41-9.71-9.86-16.03-2.46-6.32-3.68-13.95-3.68-22.9,0-12.81,3.19-23.47,9.56-31.93,6.38-8.46,14.77-14.78,25.17-18.96,10.4-4.18,21.59-6.28,33.55-6.28Z"/><path class="cls-6" d="m562.17,182.22c-7.12,0-14.06-3.67-17.89-10.25-41.62-71.46-115.42-120.46-197.45-131.1-11.3-1.47-19.27-11.76-17.81-23.01,1.48-11.23,11.85-19.11,23.16-17.7,94.67,12.29,179.86,68.83,227.85,151.25,5.72,9.82,2.35,22.36-7.53,28.05-3.25,1.86-6.8,2.76-10.32,2.76"/><path class="cls-3" d="m513.16,276.59c-9.17,0-17.59-6.12-20.07-15.38-4.25-15.84-10.5-30.97-18.62-44.94-28.96-49.93-80.36-84.17-137.48-91.61-18.74-2.44-30.1-2.44-48.84,0-57.12,7.44-108.51,41.68-137.5,91.61-8.1,13.98-14.37,29.1-18.62,44.94-2.96,11.07-14.35,17.64-25.45,14.67-11.08-2.95-17.67-14.31-14.71-25.38,5.2-19.36,12.86-37.88,22.81-55,35.4-61,98.23-102.86,168.09-111.94,22.37-2.93,37.2-2.93,59.6,0,69.84,9.09,132.67,50.94,168.07,111.94,9.95,17.13,17.63,35.64,22.81,55,2.98,11.07-3.61,22.43-14.71,25.38-1.81.48-3.59.71-5.38.71"/><path class="cls-4" d="m272.38,615c-.89,0-1.8-.06-2.71-.18-94.77-12.36-180.03-69.28-228.09-152.3-13.62-23.55-24.07-48.69-31.04-74.79-7.01-26.17-10.54-53.16-10.54-80.24s3.53-54.06,10.54-80.24c6.97-26.07,17.41-51.24,31.04-74.77C89.62,69.47,174.9,12.52,269.67.16c11.41-1.42,21.7,6.51,23.18,17.82,1.48,11.33-6.5,21.69-17.83,23.17-82.1,10.72-156,60.06-197.64,132.03-11.81,20.39-20.85,42.18-26.89,64.74-6.06,22.7-9.14,46.11-9.14,69.56s3.08,46.88,9.14,69.56c6.04,22.58,15.08,44.37,26.89,64.76,41.64,71.97,115.55,121.31,197.64,132.01,11.33,1.48,19.31,11.86,17.83,23.17-1.36,10.42-10.25,18-20.48,18"/><path class="cls-5" d="m312.56,533.65c-9.15,0-18.62-.67-29.8-2.14-69.84-9.09-132.69-50.96-168.09-111.98-9.93-17.13-17.61-35.65-22.81-55.02-2.96-11.07,3.63-22.44,14.71-25.39,11.1-2.97,22.49,3.6,25.47,14.68,4.25,15.84,10.52,30.98,18.62,44.96,28.96,49.93,80.36,84.19,137.47,91.62,18.68,2.46,30.15,2.44,48.84.02,57.11-7.45,108.51-41.71,137.47-91.64,8.1-13.98,14.37-29.11,18.62-44.96,2.98-11.07,14.37-17.65,25.47-14.68,11.08,2.95,17.67,14.32,14.71,25.39-5.2,19.37-12.88,37.89-22.81,55.02-35.4,61.02-98.25,102.89-168.09,111.98-11.16,1.47-20.63,2.14-29.8,2.14"/><path class="cls-1" d="m1680.95,246c-2.82,0-5.46-.53-7.94-1.6-2.48-1.07-4.65-2.53-6.51-4.4-1.87-1.86-3.33-4.04-4.4-6.51-1.07-2.47-1.6-5.12-1.6-7.94s.53-5.52,1.6-8c1.07-2.47,2.53-4.64,4.4-6.51s4.04-3.32,6.51-4.37c2.47-1.05,5.12-1.57,7.94-1.57s5.52.53,8,1.6c2.47,1.07,4.64,2.52,6.51,4.37,1.86,1.85,3.33,4.01,4.4,6.48,1.07,2.48,1.6,5.14,1.6,8s-.53,5.46-1.6,7.94c-1.07,2.48-2.53,4.65-4.4,6.51-1.87,1.87-4.04,3.33-6.51,4.4-2.48,1.07-5.14,1.6-8,1.6Zm.06-3.37c2.36,0,4.57-.45,6.62-1.34,2.06-.89,3.87-2.12,5.45-3.68,1.58-1.56,2.82-3.38,3.71-5.45.89-2.07,1.34-4.27,1.34-6.6s-.46-4.63-1.37-6.68c-.91-2.06-2.15-3.86-3.71-5.43-1.56-1.56-3.37-2.78-5.43-3.66-2.06-.88-4.28-1.31-6.68-1.31s-4.52.44-6.6,1.31c-2.08.88-3.89,2.09-5.45,3.66s-2.79,3.37-3.68,5.43c-.9,2.06-1.34,4.28-1.34,6.68s.45,4.57,1.34,6.62c.89,2.06,2.12,3.86,3.68,5.43,1.56,1.56,3.38,2.79,5.45,3.68,2.07.89,4.29,1.34,6.65,1.34Zm-5.37-5.71c-1.18,0-1.77-.3-1.77-.91v-20.73c0-.8.4-1.2,1.2-1.2h6c2.74,0,4.76.51,6.05,1.51,1.29,1.01,1.94,2.5,1.94,4.48,0,1.29-.35,2.39-1.06,3.28-.7.89-1.61,1.57-2.71,2.03v.17c.49.19.96.58,1.4,1.17.44.59.83,1.3,1.17,2.14l2.74,6.85c.08.23.11.42.11.57,0,.42-.57.63-1.71.63h-.97c-.95,0-1.52-.21-1.71-.63l-2.51-6.4c-.38-.88-.83-1.48-1.34-1.83-.51-.34-1.34-.51-2.48-.51h-1.88v8.45c0,.61-.57.91-1.71.91h-.74Zm2.46-13.02h3.54c.84,0,1.56-.31,2.17-.94.61-.63.91-1.38.91-2.26,0-.99-.31-1.73-.91-2.23-.61-.49-1.41-.74-2.4-.74h-3.31v6.17Z"/></g></g></svg>